<svg xmlns="http://www.w3.org/2000/svg" version="1.1" xmlns:xlink="http://www.w3.org/1999/xlink" xmlns:svgjs="http://svgjs.com/svgjs" width="1440" height="700" preserveAspectRatio="none" viewBox="0 0 1440 700"><g mask="url(&quot;#SvgjsMask1038&quot;)" fill="none"><rect width="1440" height="700" x="0" y="0" fill="rgba(236, 218, 206, 1)"></rect><path d="M0,468.305C100.489,485.637,221.079,531.287,299.717,466.368C380.174,399.948,344.794,269.104,365.229,166.794C380.446,90.609,399.728,19.388,404.482,-58.156C410.426,-155.121,453.918,-265.208,396.516,-343.583C339.435,-421.52,220.8,-409.091,127.943,-435.734C35.76,-462.183,-55.916,-530.5,-146.645,-499.427C-237.269,-468.39,-281.273,-366.543,-324.169,-280.894C-359.557,-210.236,-360.426,-131.643,-370.124,-53.216C-379.609,23.487,-402.953,99.797,-380.385,173.716C-356.138,253.134,-305.555,322.455,-239.904,373.299C-170.496,427.052,-86.512,453.384,0,468.305" fill="#e1c4b1"></path><path d="M1440 1128.422C1531.692 1140.8690000000001 1639.126 1180.2440000000001 1711.926 1123.125 1785.646 1065.285 1764.268 948.969 1785.146 857.623 1801.479 786.162 1816.614 718.36 1821.163 645.197 1826.871 553.398 1876.38 443.564 1815.157 374.925 1753.722 306.048 1637.41 353.239 1546.507 337.271 1468.473 323.564 1395.153 266.056 1318.956 287.764 1242.656 309.502 1202.626 389.344 1151.3220000000001 449.85900000000004 1100.609 509.676 1029.0149999999999 561.731 1020.5889999999999 639.698 1012.2090000000001 717.242 1075.308 780.806 1107.9 851.665 1140.386 922.293 1151.991 1005.452 1211.713 1055.221 1274.371 1107.438 1359.177 1117.45 1440 1128.422" fill="#f7f0eb"></path></g><defs><mask id="SvgjsMask1038"><rect width="1440" height="700" fill="#ffffff"></rect></mask></defs></svg>